<?xml version="1.0" standalone="no"?>
<!DOCTYPE svg PUBLIC "-//W3C//DTD SVG 20010904//EN"
 "http://www.w3.org/TR/2001/REC-SVG-20010904/DTD/svg10.dtd">
<svg version="1.0" xmlns="http://www.w3.org/2000/svg"
 width="2605.000000pt" height="2605.000000pt" viewBox="0 0 2605.000000 2605.000000"
 preserveAspectRatio="xMidYMid meet">
<metadata>
Created by potrace 1.14, written by Peter Selinger 2001-2017
</metadata>
<g transform="translate(0.000000,2605.000000) scale(0.100000,-0.100000)"
fill="#000000" stroke="none">
<path d="M7196 25881 c-2 -9 -3 -5361 -2 -11893 l1 -11878 -52 0 -52 0 1 -978
0 -978 5927 1 5926 0 2 978 2 977 -52 0 -52 0 0 11883 c1 6535 0 11887 -2
11893 -3 7 -1712 10 -5823 10 -5274 0 -5820 -1 -5824 -15z m5820 -5941 l0
-2280 -101 0 c-135 -1 -2394 -1 -2470 0 l-60 0 2 2267 c0 1248 2 2274 2 2281
1 9 271 12 1314 12 l1313 0 0 -2280z m2779 0 l0 -2280 -45 0 c-52 -1 -2447 -1
-2532 0 l-58 0 0 2280 0 2280 1318 0 1317 0 0 -2280z m-2785 -2429 c3 0 6
-1009 6 -2241 l0 -2240 -21 -1 c-100 -5 -2584 -3 -2595 2 -13 6 -15 263 -13
2236 0 1225 2 2233 2 2238 1 7 441 10 1309 9 719 -1 1309 -2 1312 -3z m2785
-2240 l0 -2245 -1300 -1 c-715 0 -1308 1 -1317 3 -16 4 -17 133 -17 2246 l0
2241 1317 0 1317 0 0 -2244z m-2805 -2391 l26 0 -2 -2237 c-1 -1231 -2 -2241
-3 -2244 0 -3 -590 -6 -1311 -5 -1184 0 -1310 1 -1311 15 -4 71 -3 3355 1
3362 3 5 15 7 25 5 11 -2 48 -7 83 -11 57 -6 69 -4 118 21 62 31 85 65 86 122
0 43 -26 112 -42 112 -7 0 -26 10 -43 22 -24 17 -43 21 -96 21 -36 -1 -81 -4
-98 -7 -27 -5 -33 -3 -34 11 -1 10 -2 197 -2 415 l-2 397 55 3 c41 2 2413 1
2550 -2z m2750 0 l55 0 0 -2243 0 -2244 -1317 0 -1318 1 0 2242 0 2243 58 3
c43 2 2190 1 2522 -2z m-2725 -6912 c1 -1560 -3 -2278 -10 -2278 -85 -4 -2606
0 -2612 3 -6 4 -10 4538 -4 4555 1 1 592 1 1314 0 l1312 -3 0 -2277z m2780 2
l0 -2280 -25 0 c-32 -1 -2511 -1 -2567 0 l-43 0 0 2280 1 2280 1317 0 1317 0
0 -2280z"/>
</g>
</svg>
